<svg xmlns="http://www.w3.org/2000/svg" viewBox="0 0 227.45 222.76"><defs><style>.cls-1,.cls-3,.cls-4{fill:#fff;}.cls-1,.cls-2,.cls-3,.cls-4,.cls-5,.cls-6,.cls-7{stroke:#000;stroke-miterlimit:10;}.cls-1,.cls-2{stroke-width:2.77px;}.cls-2,.cls-6{fill:none;}.cls-3{stroke-width:2.85px;}.cls-4,.cls-5,.cls-6,.cls-7{stroke-width:3px;}.cls-5{fill:#ff3366;}.cls-7{fill:#ff3366;}.cls-8{fill:#ff3366;}</style></defs><g id="Layer_2" data-name="Layer 2"><g id="Layer_1-2" data-name="Layer 1"><path class="cls-1" d="M31,159.83s42.48-7.1,45.83-7.25c5.69-.25,11.57-.51,17,.36a26.77,26.77,0,0,1,11.37,4.36l3.55,2.57.07,0,29.58,21.44,39-14.19a10.47,10.47,0,0,1,4.54-.28,10.58,10.58,0,0,1,6.83,4.22,10,10,0,0,1,1.89,4.56,10.6,10.6,0,0,1-4.5,10.31L151,207.66c-10.5,7.13-22.6,9.28-38.11,6.79h0a151.8,151.8,0,0,1-19.31-4.71l-10.54-3.17a57.3,57.3,0,0,0-7.5-1.72c-.58-.1-1.27-.18-2-.25a57.12,57.12,0,0,0-14.83.54l-18,3Z"/><path class="cls-2" d="M87.37,178.18l38.84,19.61a10.56,10.56,0,0,0,3.09,1,10.55,10.55,0,0,0,11.3-6.22,10.55,10.55,0,0,0-1.77-11.12"/><polygon class="cls-1" points="1.68 157.22 33.32 150.33 43.14 215.26 17.11 221.1 1.68 157.22"/><circle class="cls-3" cx="21.06" cy="164.62" r="4.86"/><path class="cls-4" d="M160.86,77.87H130.18a8.28,8.28,0,0,1-8.12-6.66h0a8.27,8.27,0,0,1,8.12-9.9h30.68a8.28,8.28,0,0,1,8.12,9.9h0A8.28,8.28,0,0,1,160.86,77.87Z"/><path class="cls-5" d="M207.25,221.26V46.39a26.19,26.19,0,0,0-52.38,0V61.31h-18.7V46.39a44.89,44.89,0,1,1,89.78,0V221.26Z"/><line class="cls-6" x1="145.51" y1="105.64" x2="145.51" y2="87.49"/><line class="cls-6" x1="132.46" y1="85.39" x2="125.56" y2="101.58"/><line class="cls-6" x1="164.55" y1="101.96" x2="157.95" y2="85.58"/><path class="cls-7" d="M174,152.18a13.43,13.43,0,0,0-2.18-.13,18.24,18.24,0,0,0,.61-2.6,17.88,17.88,0,0,0-15-20.37,18.29,18.29,0,0,0-2.54-.18,24.13,24.13,0,0,0-46.82,3.77,24.45,24.45,0,0,0-.16,6A16.56,16.56,0,1,0,113.25,170a26.27,26.27,0,0,0,49.86,4.94A13.17,13.17,0,1,0,174,152.18Z"/><path class="cls-6" d="M118.38,126a18.47,18.47,0,0,1,17.25-6.78"/><path class="cls-6" d="M157.28,136.47a14.18,14.18,0,0,1,7.9,11.86"/><path class="cls-8" d="M51.47,58.73H16.73V50.22L28.42,38.4q5-5.25,6.55-7.16A15.7,15.7,0,0,0,37.11,28a7,7,0,0,0,.61-2.88,3.77,3.77,0,0,0-1.21-2.95A5,5,0,0,0,33.1,21a9.31,9.31,0,0,0-4.57,1.29,33.2,33.2,0,0,0-5.22,3.82L16.2,17.83a38.79,38.79,0,0,1,6.22-4.73,22.08,22.08,0,0,1,5.49-2.18,27.18,27.18,0,0,1,6.66-.75,19.93,19.93,0,0,1,8.3,1.64,12.93,12.93,0,0,1,5.67,4.66,12,12,0,0,1,2,6.8,18.32,18.32,0,0,1-.7,5.2,18.42,18.42,0,0,1-2.18,4.7A33.05,33.05,0,0,1,43.76,38q-2.44,2.55-10.4,9.69v.33H51.47Z"/><path class="cls-8" d="M91,34.86q0,12.7-4.25,18.62t-13,5.91q-8.58,0-12.93-6.18T56.38,34.86q0-12.78,4.26-18.73t13-6q8.55,0,12.92,6.2T91,34.86Zm-21.71,0q0,8.12,1,11.17c.67,2,1.81,3,3.4,3s2.76-1,3.42-3.14,1-5.79,1-11.07-.34-9-1-11.15-1.81-3.19-3.41-3.19-2.73,1-3.4,3.07S69.25,29.4,69.25,34.86Z"/><path class="cls-8" d="M37.19,102.27a10.32,10.32,0,0,1-1.65,5.78A10.83,10.83,0,0,1,30.78,112a17.74,17.74,0,0,1-7.3,1.4,30.15,30.15,0,0,1-5.87-.49,22.3,22.3,0,0,1-4.93-1.71v-8.43a28.11,28.11,0,0,0,5.63,2.17,20.9,20.9,0,0,0,5.36.78,5.29,5.29,0,0,0,3.09-.73,2.27,2.27,0,0,0,1-1.88,2,2,0,0,0-.4-1.26,4.48,4.48,0,0,0-1.27-1.09q-.87-.54-4.65-2.25a22.19,22.19,0,0,1-5.13-3,9.25,9.25,0,0,1-2.54-3.35,11.13,11.13,0,0,1-.83-4.48,9,9,0,0,1,3.52-7.53q3.52-2.72,9.67-2.71a27.23,27.23,0,0,1,11.08,2.51l-2.9,7.3A21,21,0,0,0,25.82,85a4.42,4.42,0,0,0-2.68.65,1.93,1.93,0,0,0-.83,1.6,2.33,2.33,0,0,0,1.06,1.85,40.71,40.71,0,0,0,5.78,3c3,1.36,5.11,2.81,6.28,4.37A9.48,9.48,0,0,1,37.19,102.27Z"/><path class="cls-8" d="M63.37,112.9H42.6v-35H63.37V85.5H52.05V91H62.53v7.59H52.05v6.6H63.37Z"/><path class="cls-8" d="M85.07,85.16a6,6,0,0,0-5.26,2.77,13.33,13.33,0,0,0-1.89,7.62q0,10.1,7.68,10.1a15.75,15.75,0,0,0,4.5-.65c1.45-.43,2.91-1,4.38-1.55v8a24.27,24.27,0,0,1-9.91,1.94q-7.92,0-12.14-4.6T68.2,95.5a21.27,21.27,0,0,1,2-9.55,14.61,14.61,0,0,1,5.89-6.33,17.82,17.82,0,0,1,9-2.21A24.81,24.81,0,0,1,96,79.88l-2.9,7.44a31.07,31.07,0,0,0-3.87-1.53A13.44,13.44,0,0,0,85.07,85.16Z"/></g></g></svg>