<svg xmlns="http://www.w3.org/2000/svg" viewBox="0 0 233.39 217.42"><defs><style>.cls-1{fill:#fff;}.cls-1,.cls-2,.cls-3,.cls-4,.cls-5{stroke:#000;stroke-width:3px;}.cls-1,.cls-2,.cls-3,.cls-4{stroke-miterlimit:10;}.cls-2{fill:#ff3366;}.cls-3{fill:#ff3366;}.cls-4,.cls-5{fill:none;}.cls-5{stroke-linecap:round;stroke-linejoin:round;}</style></defs><g id="Layer_2" data-name="Layer 2"><g id="Layer_1-2" data-name="Layer 1"><polygon class="cls-1" points="191.12 106.28 120.21 54.33 49.3 106.28 49.3 215.92 191.12 215.92 191.12 106.28"/><rect class="cls-1" x="59.48" y="56.51" width="16.73" height="37.09"/><polygon class="cls-2" points="199.63 122.37 120.21 63.92 40.79 122.37 31.63 109.92 120.21 44.73 208.79 109.92 199.63 122.37"/><path class="cls-3" d="M141.59,154.25a3,3,0,0,1-3.07,2.82l-.29,0,1,10.69c-1.9.6-3.78,1.1-5.66,1.52a56.92,56.92,0,0,1-9.32,1.25c-1.48.07-3,.09-4.44.05a54.9,54.9,0,0,1-9.29-1.09,57.69,57.69,0,0,1-6.56-1.73l1-10.34a2.28,2.28,0,0,1-.69.13,3,3,0,0,1-3.07-2.82c-.25-5.6-.66-17.76.29-23.31,1.26-7.22,4.34-14.26,9.48-19.5a.12.12,0,0,1,.06-.06c2.32-2.84,6.2-4.08,10.57-4.08a15.13,15.13,0,0,1,8.6,2.27,9.17,9.17,0,0,1,2,1.89l0,0a37,37,0,0,1,9,19C142.25,136.5,141.85,148.65,141.59,154.25Z"/><path class="cls-4" d="M105,157.39a2.79,2.79,0,0,0,1.15-.67,2.84,2.84,0,0,0,.92-1.77c1.25-10.75,3.21-16.92,7.16-21.2"/><path class="cls-4" d="M111.22,111.66l-.16.17"/><path class="cls-4" d="M128.6,133.31c4,4.28,5.91,10.45,7.16,21.19a2.9,2.9,0,0,0,.93,1.78,2.85,2.85,0,0,0,1.54.76"/><path class="cls-4" d="M132.27,111.91c-.22-.24-.44-.47-.67-.7"/><circle class="cls-4" cx="121.63" cy="95.36" r="12.39"/><path class="cls-4" d="M119.84,170.55l-1.79,33.56h-5.66l-1.84-34.65A54.9,54.9,0,0,0,119.84,170.55Z"/><path class="cls-4" d="M133.6,169.25l-1.86,34.86h-5.67l-1.79-33.61A56.92,56.92,0,0,0,133.6,169.25Z"/><path class="cls-1" d="M41.73,62.94a3.12,3.12,0,0,0-3.45-.66c-.37-.28-.74-.55-1.13-.79a4.25,4.25,0,0,0-8.26-2,12.68,12.68,0,0,0-3.09.69,3.73,3.73,0,0,0-.36-.43,3.63,3.63,0,0,0-5.54,4.66,12.92,12.92,0,0,0-1.71,2.84,3.11,3.11,0,1,0-1.08,6,13.3,13.3,0,0,0,.81,3.82l-.3.25a3.11,3.11,0,0,0,3.78,4.87A12.71,12.71,0,0,0,25,84.57a4.41,4.41,0,0,0,7.52,3.3,4.46,4.46,0,0,0,1.28-2.72,13.09,13.09,0,0,0,3.15-1.37,3.63,3.63,0,0,0,4.83-5.11A13.11,13.11,0,0,0,43,75.28a3.11,3.11,0,0,0-.19-6.21A13.47,13.47,0,0,0,42,67,3.11,3.11,0,0,0,41.73,62.94Z"/><line class="cls-5" x1="33.4" y1="63.53" x2="33.36" y2="65.84"/><line class="cls-5" x1="33.54" y1="79.62" x2="32.37" y2="77.5"/><line class="cls-5" x1="25.81" y1="75.98" x2="23.29" y2="77.22"/><line class="cls-5" x1="25.19" y1="68.36" x2="23.05" y2="67.23"/><line class="cls-5" x1="36.03" y1="72.49" x2="38.16" y2="72.33"/><path class="cls-1" d="M110.59,9.35a3.81,3.81,0,0,0-4.21-.8,14.85,14.85,0,0,0-1.38-1A5.19,5.19,0,0,0,96.22,3a5.07,5.07,0,0,0-1.3,2.18A15.89,15.89,0,0,0,91.14,6a5.37,5.37,0,0,0-.44-.53,4.44,4.44,0,0,0-6.76,5.7,15.86,15.86,0,0,0-2.09,3.47A3.8,3.8,0,1,0,80.53,22a16,16,0,0,0,1,4.67c-.12.09-.24.2-.36.31A3.8,3.8,0,0,0,85.77,33a15.92,15.92,0,0,0,4.36,2.81,5.39,5.39,0,0,0,10.75.7,16,16,0,0,0,3.85-1.67,4.44,4.44,0,0,0,5.9-6.24,15.81,15.81,0,0,0,1.49-4.14,3.8,3.8,0,0,0-.23-7.59,16,16,0,0,0-.94-2.55A3.78,3.78,0,0,0,110.59,9.35Z"/><line class="cls-5" x1="99.93" y1="8.34" x2="99.87" y2="11.17"/><line class="cls-5" x1="96.93" y1="32.95" x2="97.63" y2="30.08"/><line class="cls-5" x1="90.22" y1="27.05" x2="87.15" y2="28.57"/><line class="cls-5" x1="90.39" y1="15.97" x2="87.78" y2="14.59"/><line class="cls-5" x1="105.35" y1="21.16" x2="107.96" y2="21.09"/><line class="cls-5" x1="96.35" y1="20.52" x2="98.21" y2="22.36"/><path class="cls-1" d="M227.3,152.14a3.45,3.45,0,0,0-3.83-.73,13.41,13.41,0,0,0-1.25-.88,4.72,4.72,0,0,0-8-4.15,4.62,4.62,0,0,0-1.19,2,14.63,14.63,0,0,0-3.44.77,3.64,3.64,0,0,0-.4-.48,4,4,0,0,0-6.14,5.18,14.36,14.36,0,0,0-1.9,3.15,3.45,3.45,0,0,0-3.64,5.68,3.41,3.41,0,0,0,2.44,1,14.46,14.46,0,0,0,.89,4.24c-.11.09-.22.18-.32.28a3.45,3.45,0,0,0,4.19,5.41,14.56,14.56,0,0,0,4,2.56,4.9,4.9,0,0,0,9.77.63,14.14,14.14,0,0,0,3.51-1.52,4,4,0,0,0,5.36-5.67,14.81,14.81,0,0,0,1.36-3.77,3.45,3.45,0,0,0-.21-6.89,15.05,15.05,0,0,0-.86-2.32A3.44,3.44,0,0,0,227.3,152.14Z"/><line class="cls-5" x1="216.91" y1="153.21" x2="216.86" y2="155.78"/><line class="cls-5" x1="215.52" y1="171.79" x2="216.16" y2="169.18"/><line class="cls-5" x1="211.08" y1="158.8" x2="208.71" y2="157.54"/><line class="cls-5" x1="219.85" y1="163.2" x2="222.22" y2="163.13"/><line class="cls-5" x1="207.3" y1="167.34" x2="209.34" y2="166.12"/><path class="cls-1" d="M36.46,141.07a3.92,3.92,0,0,0-4.35-.82,16.74,16.74,0,0,0-1.42-1,5.36,5.36,0,0,0-10.42-2.46,16.53,16.53,0,0,0-3.9.87,3.87,3.87,0,0,0-.46-.54,4.58,4.58,0,0,0-7,5.88,16.1,16.1,0,0,0-2.16,3.58,3.92,3.92,0,1,0-1.36,7.61,16.33,16.33,0,0,0,1,4.81l-.37.32a3.92,3.92,0,0,0,4.76,6.14,16.55,16.55,0,0,0,4.51,2.91,5.56,5.56,0,0,0,11.1.72,16.29,16.29,0,0,0,4-1.73,4.58,4.58,0,0,0,6.09-6.44A16.25,16.25,0,0,0,38,156.63a3.85,3.85,0,0,0,2.47-1.13,3.92,3.92,0,0,0-2.71-6.7,17,17,0,0,0-1-2.63A3.92,3.92,0,0,0,36.46,141.07Z"/><line class="cls-5" x1="25.45" y1="140.03" x2="25.39" y2="142.95"/><line class="cls-5" x1="22.36" y1="165.44" x2="23.08" y2="162.47"/><line class="cls-5" x1="15.42" y1="159.34" x2="12.25" y2="160.91"/><line class="cls-5" x1="15.6" y1="147.91" x2="12.91" y2="146.48"/><line class="cls-5" x1="31.04" y1="153.27" x2="33.74" y2="153.19"/><line class="cls-5" x1="21.76" y1="152.6" x2="23.68" y2="154.5"/><path class="cls-1" d="M209.37,24a5.91,5.91,0,0,0-6.55-1.23,23.81,23.81,0,0,0-2.14-1.52A8.07,8.07,0,0,0,187,14.17a7.94,7.94,0,0,0-2,3.39,24.8,24.8,0,0,0-5.87,1.31,6.66,6.66,0,0,0-.69-.82,6.89,6.89,0,0,0-10.51,8.85,24.72,24.72,0,0,0-3.24,5.4,5.91,5.91,0,1,0-2.05,11.45A25,25,0,0,0,164.16,51a5,5,0,0,0-.55.48,5.89,5.89,0,0,0,7.16,9.25,25,25,0,0,0,6.8,4.37,8.37,8.37,0,0,0,16.7,1.09,24.81,24.81,0,0,0,6-2.61,6.89,6.89,0,0,0,9.17-9.7,24.65,24.65,0,0,0,2.32-6.43,5.91,5.91,0,0,0-.36-11.8,26.07,26.07,0,0,0-1.46-3.95A5.92,5.92,0,0,0,209.37,24Z"/><line class="cls-5" x1="192.79" y1="22.45" x2="192.71" y2="26.84"/><line class="cls-5" x1="188.13" y1="60.7" x2="189.22" y2="56.24"/><line class="cls-5" x1="177.69" y1="51.52" x2="172.93" y2="53.88"/><line class="cls-5" x1="177.97" y1="34.31" x2="173.91" y2="32.16"/><line class="cls-5" x1="201.22" y1="42.38" x2="205.27" y2="42.26"/><line class="cls-5" x1="187.23" y1="41.38" x2="190.12" y2="44.23"/></g></g></svg>