<svg xmlns="http://www.w3.org/2000/svg" viewBox="0 0 233.24 213.73"><defs><style>.cls-1{fill:#ff3366;}.cls-1,.cls-2,.cls-3,.cls-4,.cls-6{stroke:#30302d;stroke-miterlimit:10;stroke-width:3px;}.cls-2,.cls-4{fill:none;}.cls-3{fill:#fff;}.cls-4{stroke-linecap:round;}.cls-5{fill:#30302d;}.cls-6{fill:#ff3366;}</style></defs><g id="Layer_2" data-name="Layer 2"><g id="Layer_1-2" data-name="Layer 1"><path class="cls-1" d="M231.34,120a3.8,3.8,0,0,1-3.93,3.61,2.35,2.35,0,0,1-.37-.05l1.31,13.69c-2.43.76-4.83,1.41-7.24,1.94a73.88,73.88,0,0,1-11.93,1.6c-1.9.09-3.8.12-5.68.06a70.11,70.11,0,0,1-11.9-1.38,76.91,76.91,0,0,1-8.39-2.22L184.49,124a2.91,2.91,0,0,1-.88.16,3.79,3.79,0,0,1-3.94-3.61c-.32-7.16-.84-22.72.38-29.82,1.61-9.26,5.56-18.26,12.13-25a.2.2,0,0,1,.08-.08c3-3.63,7.94-5.22,13.53-5.22a19.38,19.38,0,0,1,11,2.91,12,12,0,0,1,2.61,2.42.05.05,0,0,1,0,0c6.22,6.64,10,15.36,11.52,24.33C232.19,97.28,231.67,112.84,231.34,120Z"/><path class="cls-2" d="M184.49,124a3.85,3.85,0,0,0,2.65-3.12c1.59-13.76.87-32.29,5.93-37.77"/><path class="cls-1" d="M218.55,83.13c5.06,5.48,4.33,24,5.92,37.77a3.64,3.64,0,0,0,1.19,2.26,3.6,3.6,0,0,0,1.47.86"/><path class="cls-2" d="M192.46,65.48c-.07.08-.14.14-.2.22"/><path class="cls-2" d="M219.41,65.81c-.28-.3-.57-.61-.86-.9"/><circle class="cls-3" cx="205.78" cy="44.62" r="15.85"/><path class="cls-2" d="M203.5,140.86l-2.29,43H194l-2.36-44.34A70.11,70.11,0,0,0,203.5,140.86Z"/><path class="cls-2" d="M221.11,139.2l-2.38,44.62h-7.26l-2.29-43A73.88,73.88,0,0,0,221.11,139.2Z"/><path class="cls-2" d="M26.81,127.55l-5,56.27H14.33l-2-59.64C17.51,127.14,22.17,127.46,26.81,127.55Z"/><path class="cls-2" d="M45.75,124.19l-2,59.63h-7.5l-5-56.27C35.88,127.45,40.67,127.08,45.75,124.19Z"/><path class="cls-1" d="M56.24,127.46a3.91,3.91,0,0,1-5,3.57c-3.25-.83-3.59-2.53-3.44-7.73a.21.21,0,0,0-.32-.2c-.58.4-1.17.77-1.75,1.09-5.08,2.89-9.87,3.26-14.47,3.36l-2.39,0-2.08,0c-4.64-.09-9.3-.41-14.45-3.37q-.84-.48-1.71-1.08a.22.22,0,0,0-.34.2c.15,5.2-.18,6.9-3.44,7.73a3.92,3.92,0,0,1-5-3.57c-1.08-18.88.22-41,2.06-49.89A20,20,0,0,1,23.47,61.63l5.6,0,5.6,0A20,20,0,0,1,54.19,77.57C56,86.41,57.32,108.58,56.24,127.46Z"/><path class="cls-1" d="M7.55,130.83a3.35,3.35,0,0,0,2.6-3C11,118.14,9,84.39,14,78.5"/><path class="cls-2" d="M44.2,78.5c5,5.89,3,39.64,3.87,49.33a3.35,3.35,0,0,0,2.6,3"/><circle class="cls-3" cx="28.89" cy="45.16" r="16.39"/><line class="cls-4" x1="12.26" y1="206.25" x2="220.97" y2="206.25"/><polygon class="cls-5" points="14.45 213.73 1.5 206.25 14.45 198.77 14.45 213.73"/><polygon class="cls-5" points="218.78 213.73 231.74 206.25 218.78 198.77 218.78 213.73"/><path class="cls-5" d="M98.31,143.36H92.46v-16l.05-2.63.1-2.88c-1,1-1.65,1.61-2,1.91l-3.18,2.56-2.82-3.53,8.92-7.09h4.81Z"/><path class="cls-5" d="M115.05,139.29a59.71,59.71,0,0,1-3.33,9.07h-4.17q1.23-5,1.91-9.5h5.3Z"/><path class="cls-5" d="M131.16,125.68a8.9,8.9,0,0,1,6.39,2.25,8.08,8.08,0,0,1,2.38,6.17,9,9,0,0,1-2.86,7.14c-1.91,1.67-4.63,2.5-8.18,2.5a16,16,0,0,1-7.46-1.5v-5.05a15.78,15.78,0,0,0,3.49,1.3,15.58,15.58,0,0,0,3.76.5c3.58,0,5.36-1.47,5.36-4.39s-1.85-4.19-5.54-4.19a14.15,14.15,0,0,0-2.22.2,16.06,16.06,0,0,0-2,.43L122,129.79l1-14.1h15v5h-9.89l-.51,5.43.67-.13A12.75,12.75,0,0,1,131.16,125.68Z"/><path class="cls-5" d="M108.9,186.19l-6.66-21.71h-.17q.36,6.61.36,8.84v12.87H97.19V158.51h8l6.55,21.17h.11l7-21.17h8v27.68H121.3v-13.1c0-.62,0-1.33,0-2.14s.11-2.95.26-6.44h-.17l-7.14,21.68Z"/><path class="cls-6" d="M113.82,33.12,80.57,90.71a1.3,1.3,0,0,0,1.13,2h66.5a1.3,1.3,0,0,0,1.12-2L116.07,33.12A1.3,1.3,0,0,0,113.82,33.12Z"/><path class="cls-5" d="M118.17,73.07h-6.41l-1-18.39h8.39Zm-7.32,6.8a3.6,3.6,0,0,1,1-2.75,4.31,4.31,0,0,1,3.06-1,4.14,4.14,0,0,1,3,1,3.63,3.63,0,0,1,1,2.75,3.51,3.51,0,0,1-1.06,2.73,4.21,4.21,0,0,1-3,1,4.37,4.37,0,0,1-3-1A3.49,3.49,0,0,1,110.85,79.87Z"/><path class="cls-5" d="M170.94,184.52a1.29,1.29,0,0,0-.82-1.2,4.82,4.82,0,0,0-.1-.57,1.77,1.77,0,0,0-1-3.22,1.69,1.69,0,0,0-.84.21A5.44,5.44,0,0,0,167,179a1.64,1.64,0,0,0,0-.23,1.52,1.52,0,0,0-3-.26,5.38,5.38,0,0,0-1.34.34,1.31,1.31,0,0,0-1.18-.75,1.29,1.29,0,0,0-.92,2.21,5.34,5.34,0,0,0-.88,1.37h-.17a1.3,1.3,0,0,0-.32,2.55,5.81,5.81,0,0,0,.38,1.73,1.84,1.84,0,0,0,1.25,3.19,1.82,1.82,0,0,0,1.18-.43,5.76,5.76,0,0,0,1.34.53,1.51,1.51,0,0,0,2.93-.09,5.47,5.47,0,0,0,1.36-.64,1.32,1.32,0,0,0,.84.31,1.3,1.3,0,0,0,1.3-1.3,1.27,1.27,0,0,0-.37-.9,6.4,6.4,0,0,0,.39-.84A1.3,1.3,0,0,0,170.94,184.52Z"/><path class="cls-5" d="M170.94,49.22a1.28,1.28,0,0,0-.82-1.2,4.82,4.82,0,0,0-.1-.57,1.77,1.77,0,0,0-1-3.22,1.69,1.69,0,0,0-.84.21,5.44,5.44,0,0,0-1.12-.71,1.79,1.79,0,0,0,0-.23,1.52,1.52,0,0,0-3-.26,5.38,5.38,0,0,0-1.34.34,1.31,1.31,0,0,0-1.18-.75,1.29,1.29,0,0,0-.92,2.21,5.34,5.34,0,0,0-.88,1.37h-.17a1.3,1.3,0,0,0-.32,2.55,5.81,5.81,0,0,0,.38,1.73,1.84,1.84,0,0,0,1.25,3.19,1.82,1.82,0,0,0,1.18-.43,5.76,5.76,0,0,0,1.34.53,1.51,1.51,0,0,0,2.93-.09,5.47,5.47,0,0,0,1.36-.64,1.32,1.32,0,0,0,.84.31,1.3,1.3,0,0,0,1.3-1.3,1.27,1.27,0,0,0-.37-.9,6.4,6.4,0,0,0,.39-.84A1.3,1.3,0,0,0,170.94,49.22Z"/><path class="cls-5" d="M139.12,7.24A1.3,1.3,0,0,0,138.3,6a5,5,0,0,0-.1-.56A1.79,1.79,0,0,0,139,4a1.78,1.78,0,0,0-1.77-1.78,1.7,1.7,0,0,0-.84.22,5.72,5.72,0,0,0-1.12-.71,1.79,1.79,0,0,0,0-.23,1.52,1.52,0,0,0-3-.26,5.38,5.38,0,0,0-1.34.34,1.3,1.3,0,1,0-2.1,1.46,5.34,5.34,0,0,0-.88,1.37l-.17,0a1.3,1.3,0,0,0-1.29,1.3,1.28,1.28,0,0,0,1,1.25,5.87,5.87,0,0,0,.38,1.74,1.82,1.82,0,0,0-.59,1.35,1.85,1.85,0,0,0,1.84,1.84,1.82,1.82,0,0,0,1.18-.43,5.32,5.32,0,0,0,1.34.52,1.5,1.5,0,0,0,1.45,1.1,1.52,1.52,0,0,0,1.48-1.18,5.47,5.47,0,0,0,1.36-.64,1.32,1.32,0,0,0,.84.31,1.3,1.3,0,0,0,1.3-1.3,1.27,1.27,0,0,0-.37-.9,6,6,0,0,0,.39-.85A1.29,1.29,0,0,0,139.12,7.24Z"/><path class="cls-5" d="M86.73,26.64a1.3,1.3,0,0,0-.82-1.21c0-.19-.06-.38-.1-.57a1.77,1.77,0,0,0-1-3.22,1.84,1.84,0,0,0-.85.21,5.37,5.37,0,0,0-1.11-.71,1.64,1.64,0,0,0,0-.23,1.51,1.51,0,0,0-3-.25A5.37,5.37,0,0,0,78.5,21a1.31,1.31,0,0,0-1.18-.75,1.3,1.3,0,0,0-1.3,1.3,1.28,1.28,0,0,0,.38.91,5.66,5.66,0,0,0-.89,1.37h-.16A1.3,1.3,0,0,0,75,26.36a5.52,5.52,0,0,0,.38,1.73,1.86,1.86,0,0,0-.59,1.35,1.84,1.84,0,0,0,3,1.41,5.43,5.43,0,0,0,1.34.53,1.51,1.51,0,0,0,1.45,1.09,1.52,1.52,0,0,0,1.48-1.18,5.64,5.64,0,0,0,1.36-.64,1.24,1.24,0,0,0,.84.31,1.3,1.3,0,0,0,1.3-1.29,1.28,1.28,0,0,0-.37-.91,6.4,6.4,0,0,0,.39-.84A1.29,1.29,0,0,0,86.73,26.64Z"/><path class="cls-5" d="M73.18,170.37a1.29,1.29,0,0,0-.83-1.21,5.62,5.62,0,0,0-.09-.57,1.77,1.77,0,0,0-1-3.22,1.83,1.83,0,0,0-.84.21,5.6,5.6,0,0,0-1.12-.71.86.86,0,0,0,0-.23,1.51,1.51,0,0,0-3-.25,5.55,5.55,0,0,0-1.35.33,1.3,1.3,0,1,0-2.09,1.47,5.42,5.42,0,0,0-.89,1.36H61.8a1.29,1.29,0,0,0-.32,2.55,5.25,5.25,0,0,0,.38,1.73,1.86,1.86,0,0,0-.59,1.35A1.84,1.84,0,0,0,63.11,175a1.87,1.87,0,0,0,1.18-.42,5.49,5.49,0,0,0,1.33.52,1.53,1.53,0,0,0,1.46,1.09A1.5,1.5,0,0,0,68.55,175a5,5,0,0,0,1.36-.64,1.3,1.3,0,0,0,.85.32,1.31,1.31,0,0,0,1.3-1.3,1.29,1.29,0,0,0-.37-.91,5.28,5.28,0,0,0,.38-.84A1.29,1.29,0,0,0,73.18,170.37Z"/></g></g></svg>