<svg xmlns="http://www.w3.org/2000/svg" viewBox="0 0 240.15 232.28"><defs><style>.cls-1{fill:#fff;}.cls-1,.cls-2,.cls-3,.cls-4,.cls-6{stroke:#000;stroke-width:3px;}.cls-1,.cls-2,.cls-3,.cls-4{stroke-miterlimit:10;}.cls-2{fill:#ff3366;}.cls-3,.cls-6{fill:none;}.cls-4{fill:#ff3366;}.cls-5{fill:#000;}.cls-6{stroke-linecap:round;stroke-linejoin:round;}</style></defs><g id="Layer_2" data-name="Layer 2"><g id="Layer_1-2" data-name="Layer 1"><rect class="cls-1" x="58.07" y="148.9" width="16.26" height="29.32" transform="translate(135.04 1.1) rotate(45)"/><rect class="cls-1" x="180" y="30.67" width="8.85" height="29.32" transform="translate(86.07 -117.13) rotate(45)"/><path class="cls-1" d="M99,46.55h39.33a0,0,0,0,1,0,0V169.92a5.66,5.66,0,0,1-5.66,5.66h-28A5.66,5.66,0,0,1,99,169.92V46.55a0,0,0,0,1,0,0Z" transform="translate(113.3 -51.4) rotate(45)"/><path class="cls-2" d="M91.6,165.77l61.27-61.07A20,20,0,0,1,137.16,89c-3.08-13.86-12.11-12.11-12.11-12.11L63.8,138a6.32,6.32,0,0,0,0,9l18.87,18.87A6.33,6.33,0,0,0,91.6,165.77Z"/><path class="cls-3" d="M99,46.55h39.33a0,0,0,0,1,0,0V169.92a5.66,5.66,0,0,1-5.66,5.66h-28A5.66,5.66,0,0,1,99,169.92V46.55a0,0,0,0,1,0,0Z" transform="translate(113.3 -51.4) rotate(45)"/><rect class="cls-4" x="139.07" y="53.67" width="60.23" height="13.79" rx="6.89" transform="translate(92.38 -101.89) rotate(45)"/><rect class="cls-1" x="181.16" y="27.65" width="33.31" height="8.56" rx="4.28" transform="translate(80.52 -130.52) rotate(45)"/><polygon class="cls-5" points="56.89 174.99 3.91 226.43 3.33 225.84 54.77 172.86 56.89 174.99"/><line class="cls-3" x1="114.52" y1="102.04" x2="127.51" y2="115.02"/><line class="cls-3" x1="102.62" y1="113.95" x2="115.6" y2="126.93"/><line class="cls-3" x1="90.71" y1="125.85" x2="103.7" y2="138.83"/><line class="cls-3" x1="78.81" y1="137.76" x2="91.79" y2="150.74"/><path class="cls-3" d="M83.52,72a19.39,19.39,0,0,0,5.73,18.14"/><path class="cls-3" d="M116.47,156.33a29.31,29.31,0,0,1,2.87,18.17"/><path class="cls-3" d="M141.64,132.91a31.52,31.52,0,0,0,17.69,9.51"/><path class="cls-3" d="M51.73,110.66A20.66,20.66,0,0,1,66,115.33"/><path class="cls-1" d="M67.51,2.42a6.27,6.27,0,0,0-3.92,5.89c-.82.46-1.61.95-2.37,1.48A8.57,8.57,0,0,0,51.12,23.6,26.22,26.22,0,0,0,50,29.89a7.22,7.22,0,0,0-1.09.34,7.32,7.32,0,0,0,4.33,13.94,26,26,0,0,0,3.93,5.4,6.28,6.28,0,0,0,6.94,10.11,6.21,6.21,0,0,0,3.42-3.37,26.3,26.3,0,0,0,7.73,1.5,5.5,5.5,0,0,0,.25.75,6.26,6.26,0,0,0,12-3.2,26.06,26.06,0,0,0,7.08-4.84,8.9,8.9,0,0,0,8-15.9,26.46,26.46,0,0,0-.07-6.94,7.32,7.32,0,0,0-5.71-13,26.52,26.52,0,0,0-5.34-4.93A6.27,6.27,0,0,0,79.74,5.25a26.7,26.7,0,0,0-4.48-.2A6.26,6.26,0,0,0,67.51,2.42Z"/><line class="cls-6" x1="57.24" y1="18.35" x2="64.04" y2="23.68"/><line class="cls-6" x1="92.22" y1="37.74" x2="85.54" y2="33.46"/><line class="cls-6" x1="79.32" y1="43" x2="80.83" y2="48.44"/><line class="cls-6" x1="66.17" y1="36.84" x2="62.39" y2="39.92"/><line class="cls-6" x1="82.21" y1="16.96" x2="83.35" y2="12.8"/><line class="cls-6" x1="77.6" y1="29.64" x2="74.44" y2="26.71"/><path class="cls-1" d="M10.21,94.86a4.1,4.1,0,0,0-1,4.52,16.65,16.65,0,0,0-1.08,1.46,5.6,5.6,0,0,0-2.8,10.82,17.46,17.46,0,0,0,.82,4.09,5,5,0,0,0-.58.47,4.78,4.78,0,0,0,6,7.41A16.49,16.49,0,0,0,15.29,126a4.1,4.1,0,1,0,7.91,1.6,17.1,17.1,0,0,0,5-1c.11.14.21.27.33.4a4.09,4.09,0,0,0,6.52-4.83,17.13,17.13,0,0,0,3.13-4.65,5.8,5.8,0,0,0,1-11.56,17.13,17.13,0,0,0-1.72-4.2,4.78,4.78,0,0,0-6.59-6.5,17.05,17.05,0,0,0-4.43-1.7,4.09,4.09,0,0,0-8.18.07,17.36,17.36,0,0,0-2.76,1A4.09,4.09,0,0,0,10.21,94.86Z"/><line class="cls-6" x1="7.82" y1="107" x2="13.23" y2="108.59"/><line class="cls-6" x1="33.71" y1="110.33" x2="28.63" y2="109.35"/><line class="cls-6" x1="27.15" y1="116.63" x2="29.38" y2="119.57"/><line class="cls-6" x1="17.69" y1="116.07" x2="16.14" y2="118.85"/><line class="cls-6" x1="22.63" y1="100.14" x2="22.32" y2="97.34"/><line class="cls-6" x1="22.89" y1="108.94" x2="20.27" y2="107.93"/><path class="cls-1" d="M105.75,223.44a4.08,4.08,0,0,0,4.6.42c.51.33,1,.63,1.58.91a5.59,5.59,0,0,0,9.89,4,5.43,5.43,0,0,0,1.18-2.48,17,17,0,0,0,4-1.29,6.5,6.5,0,0,0,.53.52,4.78,4.78,0,0,0,6.67-6.81,17.56,17.56,0,0,0,1.88-3.94,4.1,4.1,0,1,0,.65-8,17.2,17.2,0,0,0-1.54-4.91,3.11,3.11,0,0,0,.35-.37,4.08,4.08,0,0,0-5.56-5.9,17.35,17.35,0,0,0-5-2.57,5.8,5.8,0,0,0-11.6.36,17.57,17.57,0,0,0-4,2.2,4.78,4.78,0,0,0-5.68,7.31,16.82,16.82,0,0,0-1.17,4.6,4.09,4.09,0,0,0-1.91,7.19,4,4,0,0,0,2.94.92,16.9,16.9,0,0,0,1.28,2.64A4.08,4.08,0,0,0,105.75,223.44Z"/><line class="cls-6" x1="118.08" y1="224.4" x2="119.03" y2="218.83"/><line class="cls-6" x1="118.35" y1="198.29" x2="117.97" y2="203.45"/><line class="cls-6" x1="125.38" y1="204.06" x2="128.04" y2="201.5"/><line class="cls-6" x1="125.93" y1="213.53" x2="128.87" y2="214.74"/><line class="cls-6" x1="109.53" y1="210.49" x2="106.79" y2="211.13"/><line class="cls-6" x1="118.24" y1="209.2" x2="117.54" y2="211.92"/><path class="cls-1" d="M190.45,112.67a7.61,7.61,0,0,0-4.75,7.15,32.15,32.15,0,0,0-2.87,1.79,10.39,10.39,0,0,0-12.25,16.75,31.78,31.78,0,0,0-1.39,7.63,9.48,9.48,0,0,0-1.32.4,8.88,8.88,0,0,0,5.25,16.91,31.79,31.79,0,0,0,4.77,6.56A7.61,7.61,0,1,0,190.46,178a32.25,32.25,0,0,0,9.37,1.82,8,8,0,0,0,.29.91,7.6,7.6,0,0,0,14.57-3.88,31.81,31.81,0,0,0,8.59-5.87,10.79,10.79,0,0,0,9.66-19.29,31.61,31.61,0,0,0-.09-8.41,8.88,8.88,0,0,0-6.91-15.74,31.91,31.91,0,0,0-6.48-6,7.61,7.61,0,0,0-14.18-5.48,31.68,31.68,0,0,0-5.43-.25A7.61,7.61,0,0,0,190.45,112.67Z"/><line class="cls-6" x1="177.99" y1="131.99" x2="186.25" y2="138.45"/><line class="cls-6" x1="220.42" y1="155.5" x2="212.31" y2="150.32"/><line class="cls-6" x1="204.77" y1="161.88" x2="206.61" y2="168.49"/><line class="cls-6" x1="188.82" y1="154.42" x2="184.24" y2="158.15"/><line class="cls-6" x1="208.28" y1="130.31" x2="209.66" y2="125.26"/><line class="cls-6" x1="202.69" y1="145.69" x2="198.85" y2="142.13"/></g></g></svg>