<svg xmlns="http://www.w3.org/2000/svg" viewBox="0 0 191.42 232.96"><defs><style>.cls-1{fill:#fff;}.cls-1,.cls-2,.cls-3,.cls-4,.cls-5{stroke:#000;stroke-miterlimit:10;stroke-width:3px;}.cls-2,.cls-4{fill:none;}.cls-3{fill:#ff3366;}.cls-4{stroke-dasharray:12;}.cls-5{fill:#ff3366;}</style></defs><g id="Layer_2" data-name="Layer 2"><g id="Layer_1-2" data-name="Layer 1"><path class="cls-1" d="M124.92,188.38c13.4,1.91,23.31-7.07,26.22-20.29l2.13-9.72a14,14,0,0,1,4.76-7.8l3.41-2.81,6.76-5.57a12.72,12.72,0,0,0,4.58-9.74,12.74,12.74,0,0,0-2-6.9l-4.55-7-3.73-5.71a21.6,21.6,0,0,1-3.53-11.83,22.49,22.49,0,0,1,.22-3.06,21.6,21.6,0,0,1,10.61-15.67c9.08-5.27,20.91-15.11,14.42-28.38C168.59,22.13,134.89,1,96.93,1.51a96.67,96.67,0,0,0-72.05,159.7c8.09,9.4,16.18,14.64,27.64,17.86h0c-8,14.64-13.35,32.73-17.6,52.22a.12.12,0,0,0,.14.15c26.38-7.84,52-10.84,75.22,0a.11.11,0,0,0,.15-.07C111.73,215.34,116.51,201,124.92,188.38Z"/><path class="cls-2" d="M106.38,138.43c-5.7-6.37-18.57-30.81-48.5-32.59a24.82,24.82,0,0,0-15.26,4.73c-4,3-6.79,7.22-7.95,14.53-4.09,25.65,20.17,47.2,46,44.56,9.1-.93,19.5-2.09,26.55-3.2"/><path class="cls-3" d="M169.76,82.32l-.12.06a39.12,39.12,0,0,1-28.51,4.33l-30.56-7.06a17.48,17.48,0,0,0-18.43,7.27h0a17.45,17.45,0,0,0-3,9.77v9.67a9.86,9.86,0,0,1-9.87,9.86h0a9.85,9.85,0,0,1-7.4-3.35A28.09,28.09,0,0,0,68,110.11a16.56,16.56,0,0,0-24.09,11.76c-2.35,14.16,4.79,26.4,13.69,34.84l8,7.57c8.44,7.5,2.62,17.87-5.51,16.56-15.67-3-25.43-8.28-35.2-19.63A96.67,96.67,0,0,1,96.93,1.51c38-.47,71.66,20.62,87.25,52.43C190.67,67.21,178.84,77.05,169.76,82.32Z"/><path class="cls-4" d="M177.45,113.11a76.19,76.19,0,0,1,8,14.71c8,19.91,5.23,39.28-8.1,56l-.15.18c-10.47,12.59-25,19.52-40.84,19.52"/><path class="cls-5" d="M161.85,111.87s32.59,32.26,6.61,64.87c-13.24,15.91-34.63,21.13-58.9,7.94-8.86-5.37-6.86-15.36-7-25.72-.15-9.94-1.11-22.05,9.66-22.77h.19a69.71,69.71,0,0,0,47.68-22.37Z"/><path class="cls-2" d="M122.89,155.87c15.61,1.31,29.41-5.55,37-18.08"/><path class="cls-2" d="M129.58,173.38c14.6,2.25,28.5-4.44,37-18.08"/></g></g></svg>